<svg width="40" height="40" viewBox="0 0 40 40" fill="none" xmlns="http://www.w3.org/2000/svg">
<g clip-path="url(#clip0)">
<path d="M35.8333 36.6667H4.16667C1.83333 36.6667 0 34.8334 0 32.5V12.5C0 10.1667 1.83333 8.33337 4.16667 8.33337H35.8333C38.1667 8.33337 40 10.1667 40 12.5V32.5C40 34.8334 38.1667 36.6667 35.8333 36.6667ZM4.16667 10C2.83333 10 1.66667 11.1667 1.66667 12.5V32.5C1.66667 33.8334 2.83333 35 4.16667 35H35.8333C37.1667 35 38.3333 33.8334 38.3333 32.5V12.5C38.3333 11.1667 37.1667 10 35.8333 10H4.16667Z" fill="#AF956A"/>
<path d="M25.832 10C25.332 10 24.9987 9.66671 24.9987 9.16671V5.83337C24.9987 5.33337 24.6654 5.00004 24.1654 5.00004H15.832C15.332 5.00004 14.9987 5.33337 14.9987 5.83337V9.16671C14.9987 9.66671 14.6654 10 14.1654 10C13.6654 10 13.332 9.66671 13.332 9.16671V5.83337C13.332 4.50004 14.4987 3.33337 15.832 3.33337H24.1654C25.4987 3.33337 26.6654 4.50004 26.6654 5.83337V9.16671C26.6654 9.66671 26.332 10 25.832 10Z" fill="#AF956A"/>
<path d="M19.9975 23.3333C19.8308 23.3333 19.8308 23.3333 19.6641 23.3333L0.497456 16.6667C0.164123 16.5 -0.169211 16 -0.00254395 15.5C0.164123 15.1667 0.664123 14.8333 1.16412 15L19.9975 21.6667L38.8308 15C39.3308 14.8333 39.6641 15 39.8308 15.5C39.9975 16 39.8308 16.3333 39.3308 16.5L20.1641 23.1667C20.1641 23.3333 20.1641 23.3333 19.9975 23.3333V23.3333Z" fill="#AF956A"/>
</g>
<defs>
<clipPath id="clip0">
<rect width="40" height="40" fill="white"/>
</clipPath>
</defs>
</svg>
