<svg width="40" height="40" viewBox="0 0 40 40" fill="none" xmlns="http://www.w3.org/2000/svg">
<path d="M30.7919 9.33328C30.4376 6.8825 29.2604 4.62883 27.4296 2.92375C25.4052 1.03836 22.7659 0 19.998 0C17.2302 0 14.5909 1.03836 12.5664 2.92375C10.7356 4.62883 9.55852 6.8825 9.20414 9.33328C5.26078 11.0552 2.66016 14.9832 2.66016 19.3315C2.66016 25.3455 7.55289 30.2381 13.5668 30.2381C15.4203 30.2381 17.2266 29.7669 18.826 28.886V40H21.1698V28.886C22.7691 29.7669 24.5755 30.2381 26.429 30.2381C32.443 30.2381 37.3356 25.3454 37.3356 19.3315C37.3359 14.9832 34.7352 11.0551 30.7919 9.33328ZM26.4291 27.8944C24.5171 27.8944 22.669 27.256 21.1699 26.088V18.92L26.4261 16.1563L25.3353 14.0819L21.1699 16.272V11.6586H18.8262V21.4668L14.6608 19.2766L13.57 21.3511L18.8262 24.1148V26.088C17.3271 27.256 15.479 27.8944 13.567 27.8944C8.84531 27.8944 5.00406 24.053 5.00406 19.3315C5.00406 15.7212 7.28734 12.4799 10.6857 11.2658L11.4026 11.0097L11.4599 10.2506C11.6223 8.10461 12.5825 6.11164 14.1638 4.63891C15.753 3.15883 17.825 2.34375 19.998 2.34375C22.1711 2.34375 24.2431 3.15883 25.8323 4.63883C27.4137 6.11156 28.3739 8.10445 28.5362 10.2505L28.5936 11.0096L29.3105 11.2657C32.7088 12.4798 34.9921 15.7212 34.9921 19.3314C34.9921 24.053 31.1508 27.8944 26.4291 27.8944Z" fill="#AF956A"/>
</svg>
