<svg width="40" height="40" viewBox="0 0 40 40" fill="none" xmlns="http://www.w3.org/2000/svg">
<g clip-path="url(#clip0)">
<path d="M15.8672 24.6104C15.5436 24.6104 15.2812 24.8727 15.2812 25.1963L15.2814 35.5121C15.2814 35.8357 15.5437 36.0981 15.8673 36.0981C16.1909 36.0981 16.4533 35.8357 16.4533 35.5121L16.4531 25.1963C16.4531 24.8727 16.1908 24.6104 15.8672 24.6104Z" fill="#AF956A"/>
<path d="M3.0668 28.0696H3.05859C2.735 28.0696 2.47266 28.3319 2.47266 28.6555C2.47266 28.9791 2.735 29.2415 3.05859 29.2415H3.0668C3.39039 29.2415 3.65273 28.9791 3.65273 28.6555C3.65273 28.3319 3.39047 28.0696 3.0668 28.0696Z" fill="#AF956A"/>
<path d="M31.391 28.0696H31.3828C31.0592 28.0696 30.7969 28.3319 30.7969 28.6555C30.7969 28.9791 31.0592 29.2415 31.3828 29.2415H31.391C31.7146 29.2415 31.977 28.9791 31.977 28.6555C31.977 28.3319 31.7146 28.0696 31.391 28.0696Z" fill="#AF956A"/>
<path d="M38.6798 26.4137L34.9592 12.0668C35.177 11.9847 35.3772 11.8667 35.5527 11.7199H38.2252C39.0946 11.7199 39.8019 11.0126 39.8019 10.1433C39.8019 9.27397 39.0946 8.56663 38.2252 8.56663H35.5527C35.1959 8.26812 34.7367 8.08804 34.2362 8.08804C33.8931 8.08804 33.5697 8.17296 33.2851 8.32226C32.9476 8.20999 32.6223 8.06179 32.3183 7.87726C32.2266 7.82163 32.1288 7.76554 32.0107 7.70093C31.7269 7.54562 31.3708 7.64983 31.2154 7.93366C31.06 8.21749 31.1643 8.57358 31.4481 8.72897C31.5505 8.78499 31.6338 8.83265 31.7102 8.87897C31.9299 9.01233 32.1584 9.13085 32.3934 9.23452C32.2741 9.47546 32.2006 9.7428 32.1845 10.0254C31.8759 9.89624 31.5767 9.74499 31.2901 9.57101C30.3638 9.00866 29.3013 8.7114 28.2177 8.7114H26.3094V7.90187H28.2177C28.4806 7.90187 28.7523 7.91858 29.0249 7.95147C29.0488 7.95437 29.0725 7.95577 29.0959 7.95577C29.3882 7.95577 29.641 7.73741 29.677 7.43999C29.7158 7.11874 29.4867 6.82679 29.1655 6.78804C28.8463 6.74944 28.5275 6.72991 28.2177 6.72991H26.3094V6.05093C26.3094 6.05069 26.3094 6.05054 26.3094 6.0503V5.54382C26.3094 5.1053 26.1386 4.69296 25.8285 4.38296C25.5184 4.07288 25.1061 3.9021 24.6677 3.9021H23.9198C23.518 3.9021 23.15 4.04765 22.8644 4.28812C22.5689 4.03874 22.1991 3.9021 21.8081 3.90218H21.0602C20.6585 3.90218 20.2905 4.04772 20.0048 4.28812C19.7094 4.03874 19.3397 3.90218 18.9486 3.90218H18.2007C17.799 3.90218 17.4309 4.04772 17.1453 4.28812C16.8498 4.03874 16.4802 3.90218 16.0891 3.90218H15.3412C14.9027 3.90218 14.4903 4.07296 14.1803 4.38304C13.8702 4.69312 13.6995 5.10546 13.6995 5.5439V6.72983H11.7826C10.3362 6.72983 8.9182 7.12655 7.68195 7.8771C7.3782 8.06147 7.05422 8.21108 6.71734 8.32327C6.43219 8.17327 6.10805 8.08796 5.76406 8.08796C5.26352 8.08796 4.80438 8.26804 4.4475 8.56655H1.77477C0.905391 8.56655 0.198125 9.27382 0.198125 10.1432C0.198125 11.0126 0.905391 11.7198 1.77477 11.7198H4.44727C4.62273 11.8666 4.82297 11.9846 5.04078 12.0667L1.32016 26.4137C0.576328 26.5123 0 27.149 0 27.9194V28.2987C0 30.4381 1.74055 32.1787 3.88 32.1787H7.64781C9.78727 32.1787 11.5278 30.4381 11.5278 28.2987V27.9194C11.5278 27.1491 10.9515 26.5123 10.2077 26.4137L6.48703 12.0667C6.8382 11.9342 7.14367 11.7082 7.37328 11.4191C8.05648 11.2253 8.71063 10.9413 9.31813 10.5726C10.0611 10.1216 10.9132 9.88319 11.7823 9.88319H13.7651C13.5844 10.1669 13.4353 10.4708 13.325 10.7896L12.7029 12.586C12.4664 13.2689 12.5059 14.0049 12.8141 14.6586L13.2668 15.6189C13.5255 16.1677 13.8743 16.6636 14.3034 17.0926L15.2812 18.0704V22.431C15.2812 22.7546 15.5435 23.0169 15.8671 23.0169C16.1907 23.0169 16.453 22.7546 16.453 22.431V19.1087C16.4934 19.1173 16.5345 19.1219 16.5755 19.1219C16.7255 19.1219 16.8755 19.0648 16.9898 18.9503C17.2187 18.7215 17.2187 18.3505 16.9898 18.1217L15.132 16.264C14.7987 15.9306 14.5278 15.5455 14.3268 15.1191L13.8741 14.1588C13.6972 13.7837 13.6745 13.3613 13.8102 12.9695L14.4323 11.1731C14.6025 10.6818 14.8947 10.2362 15.2775 9.8846L19.3837 6.11179C19.4258 6.07663 19.4881 6.07929 19.5271 6.11819C19.8127 6.40382 19.9701 6.78366 19.9701 7.18757C19.9701 7.59147 19.8128 7.97132 19.5272 8.25694L17.2502 10.534C17.0213 10.7628 17.0213 11.1338 17.2502 11.3626L17.6172 11.7296C18.2541 12.3666 18.5057 13.2698 18.29 14.1458C18.2127 14.4601 18.4047 14.7775 18.7189 14.8549C19.0333 14.9322 19.3505 14.7403 19.428 14.426C19.6137 13.6717 19.5602 12.9041 19.2953 12.2101C19.8318 12.0039 20.2584 11.575 20.4612 11.0369C20.7499 11.1966 21.0815 11.2879 21.4341 11.2879C21.9726 11.2879 22.4788 11.0781 22.8595 10.6974C22.9925 10.5644 23.1041 10.4158 23.1938 10.2561C23.5103 10.4631 23.888 10.584 24.2937 10.584C24.59 10.584 24.8763 10.5201 25.1376 10.3996V12.5655C25.1376 13.5535 24.8097 14.5317 24.2142 15.32L23.2443 16.6041C23.1675 16.7058 23.1259 16.8298 23.1259 16.9573L23.1262 35.512C23.1262 35.8356 23.3885 36.098 23.7121 36.098C24.0357 36.098 24.298 35.8356 24.298 35.512L24.2978 17.1538L25.1493 16.0265C25.8974 15.0361 26.3095 13.807 26.3095 12.5657V9.88327H28.2177C29.0869 9.88327 29.9391 10.1217 30.682 10.5728C31.2895 10.9416 31.9441 11.2266 32.6277 11.4204C32.8572 11.7089 33.1623 11.9346 33.5131 12.0669L29.7925 26.4139C29.0487 26.5124 28.4723 27.1492 28.4723 27.9195V28.2988C28.4723 30.4383 30.2129 32.1788 32.3523 32.1788H36.1202C38.2596 32.1788 40.0002 30.4383 40.0002 28.2988V27.9195C40 27.149 39.4237 26.5123 38.6798 26.4137V26.4137ZM6.64719 10.1432C6.64719 10.6302 6.25094 11.0266 5.76383 11.0266C5.27672 11.0266 4.88047 10.6303 4.88047 10.1432C4.88047 9.65608 5.27672 9.25983 5.76383 9.25983C6.25094 9.25983 6.64719 9.65616 6.64719 10.1432ZM1.37 10.1432C1.37 9.92007 1.55156 9.73843 1.77477 9.73843H3.74891C3.72266 9.86937 3.70867 10.0047 3.70867 10.1432C3.70867 10.2817 3.72266 10.417 3.74891 10.548H1.77477C1.55156 10.548 1.37 10.3664 1.37 10.1432V10.1432ZM10.3559 28.2987C10.3559 29.7919 9.14109 31.0068 7.64781 31.0068H3.88C2.38672 31.0068 1.17188 29.7919 1.17188 28.2987V27.9194C1.17188 27.7272 1.3282 27.5709 1.52039 27.5709H5.04719C5.37078 27.5709 5.63312 27.3085 5.63312 26.9849C5.63312 26.6613 5.37078 26.399 5.04719 26.399H2.53461L5.76391 13.9466L8.9932 26.399H7.81242C7.48883 26.399 7.22648 26.6613 7.22648 26.9849C7.22648 27.3085 7.48883 27.5709 7.81242 27.5709H10.0074C10.1996 27.5709 10.3559 27.7272 10.3559 27.9194V28.2987ZM8.71 9.57085C8.42328 9.74491 8.12406 9.89624 7.81547 10.0254C7.79938 9.7428 7.72594 9.47546 7.60664 9.23452C7.84164 9.13085 8.07008 9.01226 8.28984 8.87882C9.34273 8.2396 10.5504 7.90171 11.7823 7.90171H13.6992V8.71124H11.7823C10.6987 8.71124 9.63625 9.00851 8.71 9.57085V9.57085ZM14.8712 8.66647V5.5439C14.8712 5.41843 14.92 5.30038 15.0087 5.21171C15.0975 5.12296 15.2155 5.07405 15.341 5.07405H16.089C16.2145 5.07405 16.3325 5.12288 16.4212 5.21163C16.5099 5.30038 16.5588 5.41835 16.5588 5.5439V7.11585L14.8712 8.66647ZM18.5966 5.24358L17.7306 6.03921V5.5439C17.7306 5.28483 17.9414 5.07397 18.2005 5.07397H18.8371C18.7554 5.11882 18.677 5.17218 18.6045 5.23632C18.6019 5.23874 18.5992 5.24116 18.5966 5.24358ZM18.6838 11.164C18.6228 11.0905 18.5598 11.0182 18.4927 10.9487L19.4184 10.023V10.328C19.4184 10.7562 19.0976 11.1101 18.6838 11.164ZM21.4341 10.1161C20.9688 10.1161 20.5904 9.73765 20.5902 9.27241V8.81726C20.9477 8.3514 21.142 7.78452 21.142 7.18741C21.142 6.58999 20.9475 6.0228 20.5895 5.55679C20.5896 5.55241 20.5902 5.54812 20.5902 5.54374C20.5902 5.28468 20.8009 5.07382 21.06 5.07382H21.808C21.9334 5.07382 22.0515 5.12265 22.1402 5.2114C22.2289 5.30015 22.2778 5.41812 22.2778 5.54366V9.2721C22.2779 9.73749 21.8994 10.116 21.4341 10.1161ZM24.8903 9.16499C24.7309 9.32444 24.519 9.41218 24.2936 9.41218C23.8283 9.41218 23.4498 9.03366 23.4498 8.56835C23.4498 8.56827 23.4498 8.56827 23.4498 8.56819V5.54382C23.4498 5.28476 23.6605 5.0739 23.9197 5.0739H24.6676C24.793 5.0739 24.9111 5.12272 24.9998 5.21147C25.0885 5.30022 25.1374 5.41819 25.1374 5.54374V8.56827C25.1374 8.79374 25.0497 9.00562 24.8903 9.16499ZM37.4654 26.399H31.0068L34.2361 13.9467L37.4654 26.399ZM38.63 10.1432C38.63 10.3664 38.4484 10.548 38.2252 10.548H36.2511C36.2773 10.417 36.2913 10.2817 36.2913 10.1432C36.2913 10.0047 36.2773 9.86937 36.2511 9.73843H38.2252C38.4484 9.73843 38.63 9.92007 38.63 10.1432ZM35.1195 10.1432C35.1195 10.6302 34.7232 11.0266 34.2361 11.0266C33.749 11.0266 33.3527 10.6303 33.3527 10.1432C33.3527 9.65608 33.749 9.25983 34.2361 9.25983C34.7232 9.25983 35.1195 9.65616 35.1195 10.1432ZM38.8281 28.2987C38.8281 29.7919 37.6133 31.0068 36.12 31.0068H32.3522C30.8589 31.0068 29.6441 29.7919 29.6441 28.2987V27.9194C29.6441 27.7272 29.8004 27.5709 29.9926 27.5709H38.4796C38.6718 27.5709 38.8281 27.7272 38.8281 27.9194V28.2987Z" fill="#AF956A"/>
</g>
<defs>
<clipPath id="clip0">
<rect width="40" height="40" fill="white"/>
</clipPath>
</defs>
</svg>
