<svg width="40" height="40" viewBox="0 0 40 40" fill="none" xmlns="http://www.w3.org/2000/svg">
<g clip-path="url(#clip0)">
<path d="M39.4129 38.8259H35.6164V15.6165C35.6164 15.2923 35.3536 15.0294 35.0293 15.0294H28.7671C28.4428 15.0294 28.18 15.2923 28.18 15.6165V38.8259H23.7182V22.505C23.7182 22.1807 23.4554 21.9179 23.1311 21.9179H16.8689C16.5446 21.9179 16.2818 22.1807 16.2818 22.505V38.8259H11.82V25.6361C11.82 25.3118 11.5572 25.0489 11.2329 25.0489H4.9707C4.64641 25.0489 4.38359 25.3118 4.38359 25.6361V38.8258H0.587109C0.262812 38.8258 0 39.0887 0 39.4129C0 39.7371 0.262812 40 0.587109 40H39.4129C39.7372 40 40 39.7371 40 39.4129C39.9999 39.0887 39.7372 38.8259 39.4129 38.8259ZM10.6458 38.8259H5.55773V26.2232H10.6458V38.8259ZM22.5441 38.8259H17.456V23.0921H22.5441V38.8259ZM34.4423 38.8259H29.3542V16.2036H34.4423V38.8259Z" fill="#AF956A"/>
<path d="M38.1282 0.460213C37.7325 0.110917 37.2059 -0.0518178 36.6824 0.0139634L31.6727 0.640213C30.6781 0.76451 29.9511 1.69803 30.0755 2.69357C30.2012 3.69959 31.1216 4.41654 32.129 4.29076L32.5377 4.23974C26.3889 11.3691 19.079 15.0537 13.9135 16.9054C7.4728 19.2144 2.45976 19.4119 2.41093 19.4135C1.3982 19.4451 0.599133 20.2949 0.629758 21.3078C0.66007 22.3081 1.46734 23.0916 2.46773 23.0916C2.48632 23.0916 2.50499 23.0914 2.52413 23.0908C2.74702 23.084 8.06116 22.8964 15.0623 20.4017C18.9981 18.9992 22.7016 17.1374 26.0696 14.8681C26.3385 14.687 26.4096 14.322 26.2284 14.0532C26.0473 13.7842 25.6824 13.7132 25.4134 13.8944C22.1269 16.1089 18.5116 17.9262 14.6682 19.2957C7.83905 21.729 2.70374 21.9106 2.48898 21.9171L2.46773 21.9174C2.10616 21.9174 1.81429 21.634 1.80335 21.2722C1.79226 20.9058 2.08132 20.5985 2.44788 20.587C2.49913 20.5854 7.65523 20.3961 14.3098 18.0106C19.8847 16.0121 27.8951 11.9314 34.3977 3.84045C34.7215 3.43764 34.3792 2.82599 33.8674 2.89014L31.9837 3.1256C31.6571 3.16599 31.3399 2.95201 31.257 2.6331C31.1573 2.24935 31.4255 1.85435 31.8184 1.80514L36.8284 1.17889C37.2195 1.12943 37.5761 1.4456 37.5761 1.83912V6.84889C37.5761 7.21576 37.2777 7.51428 36.9107 7.51428C36.5437 7.51428 36.2453 7.21584 36.2453 6.84889V5.33014C36.2453 5.09021 36.0902 4.86584 35.8658 4.78107C35.634 4.69349 35.3601 4.76701 35.2034 4.95889C33.0106 7.64568 30.5139 10.0769 27.7824 12.1851C27.5258 12.3832 27.4782 12.7519 27.6763 13.0086C27.8744 13.2653 28.2433 13.3127 28.4998 13.1147C30.8791 11.2783 33.0846 9.20326 35.073 6.93178C35.1165 7.90779 35.9241 8.68857 36.9108 8.68857C37.9251 8.68857 38.7503 7.86334 38.7503 6.84904V1.83928C38.7502 1.31193 38.5235 0.809198 38.1282 0.460213Z" fill="#AF956A"/>
</g>
<defs>
<clipPath id="clip0">
<rect width="40" height="40" fill="white"/>
</clipPath>
</defs>
</svg>
