<svg width="40" height="40" viewBox="0 0 40 40" fill="none" xmlns="http://www.w3.org/2000/svg">
<g clip-path="url(#clip0)">
<path d="M36.25 5H3.75003C1.68213 5 0 6.68213 0 8.75003V31.25C0 33.3179 1.68213 35 3.75003 35H36.25C38.3179 35 40 33.3179 40 31.25V8.75003C40 6.68213 38.3179 5 36.25 5V5ZM36.25 7.49999C36.4198 7.49999 36.5814 7.53523 36.7291 7.59676L20 22.096L3.27084 7.59676C3.41854 7.53531 3.58011 7.49999 3.74994 7.49999H36.25ZM36.25 32.5H3.75003C3.06034 32.5 2.49999 31.9397 2.49999 31.2499V10.238L19.1809 24.6948C19.4165 24.8986 19.7083 25 20 25C20.2917 25 20.5835 24.8987 20.8191 24.6948L37.5 10.238V31.25C37.4999 31.9397 36.9397 32.5 36.25 32.5V32.5Z" fill="#AF956A"/>
</g>
<defs>
<clipPath id="clip0">
<rect width="40" height="40" fill="white"/>
</clipPath>
</defs>
</svg>
