<svg width="80" height="80" viewBox="0 0 80 80" fill="none" xmlns="http://www.w3.org/2000/svg">
<path d="M24.6714 29.0479C24.1688 28.6402 23.431 28.7171 23.0231 29.2199C22.5497 29.8037 21.922 30.1251 21.2555 30.1251C20.5889 30.1251 19.9612 29.8035 19.4878 29.2199C19.0802 28.7173 18.342 28.6404 17.8395 29.0479C17.3369 29.4556 17.2598 30.1935 17.6675 30.6962C18.5811 31.8228 19.8889 32.4689 21.2555 32.4689C22.622 32.4689 23.9297 31.8228 24.8435 30.6962C25.2511 30.1935 25.1741 29.4556 24.6714 29.0479Z" fill="#AF956A"/>
<path d="M15.8999 22.0918C15.2527 22.0918 14.728 22.6165 14.728 23.2637V24.6026C14.728 25.2498 15.2527 25.7745 15.8999 25.7745C16.5471 25.7745 17.0718 25.2498 17.0718 24.6026V23.2637C17.0718 22.6165 16.5471 22.0918 15.8999 22.0918Z" fill="#AF956A"/>
<path d="M26.6113 22.0918C25.9641 22.0918 25.4395 22.6165 25.4395 23.2637V24.6026C25.4395 25.2498 25.964 25.7745 26.6113 25.7745C27.2585 25.7745 27.7832 25.2498 27.7832 24.6026V23.2637C27.7832 22.6165 27.2585 22.0918 26.6113 22.0918Z" fill="#AF956A"/>
<path d="M63.4999 35.7432C62.9973 35.3356 62.2593 35.4124 61.8517 35.9152C61.3782 36.4988 60.7504 36.8204 60.084 36.8204C59.4174 36.8204 58.7898 36.4988 58.3163 35.9152C57.9088 35.4126 57.1707 35.3356 56.668 35.7432C56.1654 36.1509 56.0885 36.8888 56.4962 37.3915C57.4096 38.5182 58.7174 39.1642 60.084 39.1642C61.4506 39.1642 62.7582 38.5181 63.6718 37.3915C64.0795 36.8888 64.0026 36.1509 63.4999 35.7432Z" fill="#AF956A"/>
<path d="M54.7285 28.7861C54.0813 28.7861 53.5566 29.3108 53.5566 29.958V31.2969C53.5566 31.9441 54.0813 32.4688 54.7285 32.4688C55.3757 32.4688 55.9004 31.9441 55.9004 31.2969V29.958C55.9004 29.3108 55.3757 28.7861 54.7285 28.7861Z" fill="#AF956A"/>
<path d="M65.4395 28.7861C64.7923 28.7861 64.2676 29.3108 64.2676 29.958V31.2969C64.2676 31.9441 64.7921 32.4688 65.4395 32.4688C66.0867 32.4688 66.6113 31.9441 66.6113 31.2969V29.958C66.6113 29.3108 66.0867 28.7861 65.4395 28.7861Z" fill="#AF956A"/>
<path d="M76.7389 51.9602L67.558 48.2879C67.5084 48.268 67.4624 48.2427 67.4159 48.2183C73.757 46.7755 76.7601 44.3627 76.8934 44.2535C77.2104 43.9936 77.3687 43.5871 77.3108 43.1813C77.2975 43.0885 75.9836 33.7851 75.9836 24.6024C75.9836 15.8352 68.8509 8.70249 60.0836 8.70249C51.3164 8.70249 44.1838 15.835 44.1838 24.6024C44.1838 27.0046 44.0748 29.9428 43.8973 32.7242L41.339 34.0034L33.8296 30.2489C33.808 30.2381 33.7854 30.2303 33.7633 30.2209C34.1205 29.1798 34.3541 28.082 34.4399 26.9428C36.0107 26.4574 37.1552 24.9916 37.1552 23.2635C37.1552 22.0996 36.6352 21.0555 35.8163 20.349V12.552C35.8163 10.3981 34.728 8.3828 32.9433 7.17186C32.3386 4.92497 30.3199 3.34668 27.9499 3.34668H17.2385C11.4244 3.34668 6.69426 8.07686 6.69426 13.891V20.3488C5.87535 21.0552 5.35534 22.0994 5.35534 23.2634C5.35534 24.9915 6.49988 26.4573 8.07067 26.9426C8.36661 30.8768 10.3941 34.3336 13.3888 36.5583V39.7974L3.69752 42.7047C1.48595 43.3683 0 45.3654 0 47.6744V60.7528C0 61.4 0.524691 61.9247 1.17188 61.9247H1.33891V75.4808C1.33891 76.128 1.8636 76.6527 2.5108 76.6527C3.15799 76.6527 3.68268 76.128 3.68268 75.4808V61.9247H8.03348V75.4808C8.03348 76.128 8.55817 76.6527 9.20537 76.6527C9.85256 76.6527 10.3772 76.128 10.3772 75.4808V55.2745C10.3772 54.2467 10.0758 53.2513 9.50584 52.3963L7.5027 49.3916C7.14364 48.853 6.41597 48.7077 5.87769 49.0665C5.33909 49.4254 5.19362 50.153 5.55269 50.6916L7.55582 53.6965C7.86833 54.1653 8.03364 54.7109 8.03364 55.2745V59.5809H2.5108H2.34376V47.6744C2.34376 46.4083 3.15846 45.3135 4.37128 44.9496L8.39427 43.7427C9.79521 49.6087 15.1157 53.8912 21.2556 53.8912C23.4614 53.8912 25.6036 53.3473 27.5219 52.3123C28.223 53.2687 29.3538 53.8912 30.6278 53.8912H30.7949V54.0582C30.7949 57.9868 32.9561 61.4181 36.1505 63.232V65.1434C36.1505 65.2153 36.1046 65.2791 36.0363 65.3019L31.6649 66.7591C29.5428 67.4664 28.117 69.4446 28.117 71.6815V75.4808C28.117 76.128 28.6417 76.6527 29.2889 76.6527C29.9361 76.6527 30.4608 76.128 30.4608 75.4808V71.6815C30.4608 70.455 31.2425 69.3703 32.406 68.9827L33.6914 68.5541C35.3921 71.0904 38.2523 72.6361 41.339 72.6361C44.429 72.6361 47.2865 71.0913 48.9868 68.5542L50.272 68.9827C51.4355 69.3705 52.2172 70.455 52.2172 71.6815V75.4808C52.2172 76.128 52.7419 76.6527 53.3891 76.6527C54.0363 76.6527 54.5609 76.128 54.5609 75.4808V71.6815C54.5609 69.4446 53.1352 67.4664 51.0131 66.7592L46.6417 65.302C46.5734 65.2792 46.5275 65.2156 46.5275 65.1436V63.2322C48.9192 61.874 50.7295 59.609 51.4889 56.907C53.7034 59.2242 56.7964 60.5861 60.0835 60.5861C65.2729 60.5861 69.8262 57.2315 71.3946 52.3473L75.8679 54.1365C76.9544 54.571 77.6562 55.6079 77.6562 56.7778V62.2589H77.4892H73.3054V60.7529C73.3054 60.1058 72.7807 59.5811 72.1335 59.5811C71.4864 59.5811 70.9617 60.1058 70.9617 60.7529V75.481C70.9617 76.1282 71.4864 76.6529 72.1335 76.6529C72.7807 76.6529 73.3054 76.1282 73.3054 75.481V64.6027H76.3173V75.481C76.3173 76.1282 76.842 76.6529 77.4892 76.6529C78.1364 76.6529 78.6611 76.1282 78.6611 75.481V64.6027H78.8281C79.1389 64.6027 79.4369 64.4792 79.6567 64.2595C79.8766 64.0397 80 63.7417 80 63.4308V56.7778C80.0005 54.6437 78.7203 52.7527 76.7389 51.9602ZM46.5278 24.6023C46.5278 17.1274 52.6091 11.0461 60.0839 11.0461C67.5588 11.0461 73.64 17.1274 73.64 24.6023C73.64 32.4715 74.5876 40.4264 74.8956 42.8022C73.8454 43.4893 71.1567 45.0024 66.6115 45.9968V44.1319C67.234 43.7791 67.8299 43.3764 68.3902 42.9236C70.6962 41.0597 72.3257 38.4492 72.9782 35.5733C73.1957 34.615 73.3061 33.6267 73.3061 32.6359C73.3061 26.0123 68.5159 25.0613 63.8833 24.1416C60.9357 23.5565 57.8877 22.9513 55.4605 21.0096C55.1088 20.7282 54.6269 20.6733 54.2208 20.8685C53.8147 21.0637 53.5566 21.4741 53.5566 21.9248C53.5566 21.9559 53.5055 25.0393 49.0886 26.1435C48.4606 26.3006 48.0789 26.9368 48.2359 27.5648C48.3928 28.1928 49.0292 28.5742 49.657 28.4174C53.3539 27.4932 54.862 25.4193 55.477 23.8612C58.0183 25.3671 60.865 25.9321 63.4269 26.4407C68.3784 27.4237 70.9623 28.1457 70.9623 32.6361C70.9623 33.4526 70.8715 34.2664 70.6926 35.0548C70.1559 37.4195 68.8151 39.5667 66.9168 41.1011C64.9637 42.6799 62.6008 43.5143 60.0839 43.5143C57.7896 43.5143 55.6059 42.8105 53.7528 41.4807C53.0739 39.6277 51.9834 37.9323 50.5445 36.5355V31.2972C50.5445 30.8909 50.3342 30.5137 49.9887 30.3003C49.6433 30.0868 49.212 30.0673 48.8486 30.249L46.3184 31.514C46.4571 29.0735 46.5278 26.7532 46.5278 24.6023ZM48.2007 33.1929V37.4341L43.9595 35.3136L48.2007 33.1929ZM34.4775 33.1929L38.7187 35.3136L34.4775 37.4341V33.1929ZM28.117 46.0247V47.1377C27.278 47.8622 26.7781 48.9226 26.7781 50.0413C25.1091 51.0274 23.2129 51.5474 21.2554 51.5474C16.1579 51.5474 11.7477 47.9602 10.6444 43.0677L13.5396 42.1991C14.2538 45.8066 17.4415 48.5355 21.2556 48.5355C24.2842 48.5355 26.9167 46.8141 28.2308 44.2993C28.1556 44.8683 28.117 45.4446 28.117 46.0247ZM15.7329 40.6672V37.9527C17.4145 38.7292 19.2851 39.1631 21.2556 39.1631C23.2259 39.1631 25.0967 38.7291 26.7783 37.9528V40.6689C26.7783 43.7141 24.3009 46.1916 21.2556 46.1916C18.2154 46.1916 15.7415 43.7222 15.7332 40.6839C15.7332 40.6783 15.7329 40.6727 15.7329 40.6672ZM21.2556 36.8194C15.2571 36.8194 10.3772 31.9395 10.3772 25.9412C10.3772 25.294 9.85256 24.7693 9.20537 24.7693C8.37505 24.7693 7.69942 24.0937 7.69942 23.2634C7.69942 22.433 8.37489 21.7574 9.20537 21.7574H11.8832C12.3876 21.7574 12.8354 21.4348 12.9949 20.9562L14.0706 17.7293C16.7635 17.6685 25.1119 17.2899 29.813 14.9392C30.3919 14.6497 30.6266 13.946 30.3371 13.3671C30.0477 12.7881 29.3439 12.5535 28.7649 12.843C23.7209 15.3649 13.3262 15.3971 13.2218 15.3971C12.7174 15.3972 12.2696 15.7199 12.1102 16.1985L11.0385 19.4138H9.20537C9.14943 19.4138 9.0938 19.4157 9.03833 19.418V13.891C9.03833 9.36922 12.7171 5.69044 17.2389 5.69044H27.9502C29.3495 5.69044 30.5252 6.69904 30.746 8.08843C30.8021 8.44155 31.0163 8.74968 31.3277 8.92531C32.6508 9.67156 33.4729 11.0611 33.4729 12.5519V19.4177C33.4174 19.4152 33.3619 19.4135 33.3058 19.4135H31.9669C31.3197 19.4135 30.795 19.9382 30.795 20.5854C30.795 21.2326 31.3197 21.7573 31.9669 21.7573H33.3058C34.1361 21.7573 34.8118 22.4327 34.8118 23.2632C34.8118 24.0937 34.1363 24.7691 33.3058 24.7691C32.6586 24.7691 32.1339 25.2938 32.1339 25.941C32.1339 31.9393 27.2541 36.8194 21.2556 36.8194ZM29.1219 40.6692V36.5583C30.2877 35.6922 31.3066 34.6401 32.1338 33.4445V36.5353C30.8214 37.8094 29.7985 39.3314 29.1136 40.9952C29.1181 40.8869 29.1219 40.7785 29.1219 40.6692ZM46.6484 67.7746C45.3582 69.3507 43.4201 70.2922 41.3391 70.2922C39.2607 70.2922 37.3213 69.35 36.0307 67.7744L36.7776 67.5255C37.8044 67.1833 38.4944 66.2259 38.4944 65.1436V64.2095C39.4001 64.4638 40.3535 64.6027 41.3393 64.6027C42.3251 64.6027 43.2785 64.4638 44.1842 64.2095V65.1436C44.184 66.2258 44.8739 67.1831 45.9009 67.5253L46.6484 67.7746ZM50.7117 51.5474C50.0645 51.5474 49.5398 52.0721 49.5398 52.7193V53.8845C49.5398 53.8946 49.5397 53.9048 49.5398 53.9149V54.0582C49.5397 58.58 45.8609 62.2587 41.3391 62.2587C36.8174 62.2587 33.1388 58.58 33.1388 54.0582V52.7193C33.1388 52.0721 32.6141 51.5474 31.9669 51.5474H30.628C29.7977 51.5474 29.122 50.872 29.122 50.0415C29.122 49.5071 29.4049 49.0235 29.8785 48.7479C29.9842 48.6863 30.0763 48.6083 30.156 48.5202C33.0528 48.4363 42.4434 47.8912 48.6151 44.3644C49.177 44.0433 49.3723 43.3275 49.0512 42.7655C48.7301 42.2035 48.014 42.0083 47.4523 42.3294C42.0457 45.4188 33.55 46.0374 30.461 46.161V46.0247C30.461 43.8452 31.121 41.7344 32.3169 39.9549C32.4105 40.1031 32.5357 40.2319 32.6897 40.327C32.878 40.4433 33.0916 40.5021 33.3058 40.5021C33.4849 40.5021 33.6644 40.461 33.8299 40.3783L41.3393 36.6236L48.8487 40.3783C49.0142 40.461 49.1937 40.5021 49.3728 40.5021C49.5872 40.5021 49.8008 40.4433 49.9889 40.327C50.1428 40.2319 50.268 40.103 50.3615 39.9549C51.5575 41.7344 52.2175 43.8452 52.2175 46.0247V47.7351C52.2175 48.1523 52.4392 48.538 52.8 48.7479C53.2737 49.0237 53.5566 49.5071 53.5566 50.0415C53.5566 50.8718 52.8809 51.5474 52.0506 51.5474H50.7117V51.5474ZM60.0839 58.242C56.8395 58.242 53.8295 56.5903 52.0773 53.8906C54.1877 53.876 55.9002 52.1552 55.9002 50.0416C55.9002 48.9229 55.4003 47.8624 54.5613 47.1379V46.0249C54.5613 45.5532 54.5358 45.0841 54.4859 44.6194C56.2236 45.4341 58.1208 45.8577 60.0839 45.8577C61.5129 45.8577 62.926 45.621 64.2677 45.1735V46.8896C64.2677 48.4729 65.2176 49.876 66.6876 50.464L69.2146 51.4748C68.0035 55.4792 64.3051 58.242 60.0839 58.242Z" fill="#AF956A"/>
<path d="M44.7549 55.8262C44.2523 55.4186 43.5143 55.4954 43.1066 55.9983C42.633 56.582 42.0054 56.9034 41.339 56.9034C40.6726 56.9034 40.0447 56.582 39.5713 55.9983C39.1636 55.4956 38.4255 55.4186 37.923 55.8262C37.4204 56.2339 37.3433 56.9719 37.751 57.4745C38.6647 58.6009 39.9724 59.2472 41.339 59.2472C42.7055 59.2472 44.0132 58.6011 44.927 57.4747C45.3345 56.972 45.2574 56.2339 44.7549 55.8262Z" fill="#AF956A"/>
<path d="M37.3438 52.5576C37.991 52.5576 38.5156 52.033 38.5156 51.3857C38.5156 50.7385 37.991 50.2139 37.3438 50.2139C36.6965 50.2139 36.1719 50.7385 36.1719 51.3857C36.1719 52.033 36.6965 52.5576 37.3438 52.5576Z" fill="#AF956A"/>
<path d="M45.313 52.5576C45.9602 52.5576 46.4849 52.033 46.4849 51.3857C46.4849 50.7385 45.9602 50.2139 45.313 50.2139C44.6658 50.2139 44.1411 50.7385 44.1411 51.3857C44.1411 52.033 44.6658 52.5576 45.313 52.5576Z" fill="#AF956A"/>
</svg>
