<svg width="40" height="40" viewBox="0 0 40 40" fill="none" xmlns="http://www.w3.org/2000/svg">
<path d="M18.125 23.75H15.625V25H18.125V23.75Z" fill="#AF956A"/>
<path d="M24.375 23.75H21.875V25H24.375V23.75Z" fill="#AF956A"/>
<path d="M37.5107 15.6562C37.7588 15.5846 37.9892 15.462 38.1872 15.2963C38.3852 15.1305 38.5465 14.9253 38.6607 14.6938L38.792 14.4375C38.9992 14.0147 39.041 13.5296 38.9092 13.0776C38.7774 12.6255 38.4815 12.239 38.0795 11.9938L36.2482 10.8938V4.8875C36.6616 4.73751 37.0091 4.44702 37.23 4.06679C37.4508 3.68657 37.5311 3.24081 37.4566 2.80743C37.3821 2.37406 37.1577 1.98064 36.8226 1.69595C36.4875 1.41126 36.0629 1.25341 35.6232 1.25H30.6232C30.1264 1.25148 29.6504 1.4495 29.299 1.80081C28.9477 2.15212 28.7497 2.62818 28.7482 3.125C28.7482 3.51047 28.8679 3.88644 29.0907 4.20102C29.3134 4.5156 29.6284 4.75328 29.992 4.88125V7.14375L20.9607 1.725C20.6701 1.55021 20.3374 1.45786 19.9982 1.45786C19.6591 1.45786 19.3264 1.55021 19.0357 1.725L1.91698 11.9938C1.51496 12.239 1.21903 12.6255 1.08722 13.0776C0.955411 13.5296 0.997231 14.0147 1.20448 14.4375L1.33573 14.6938C1.44996 14.9253 1.61123 15.1305 1.80924 15.2963C2.00726 15.462 2.23766 15.5846 2.48573 15.6562C2.65637 15.7056 2.83309 15.7309 3.01073 15.7313C3.26541 15.7251 3.51623 15.6677 3.74823 15.5625V35H3.12323C2.62595 35 2.14904 35.1975 1.79741 35.5492C1.44577 35.9008 1.24823 36.3777 1.24823 36.875C1.24823 37.3723 1.44577 37.8492 1.79741 38.2008C2.14904 38.5525 2.62595 38.75 3.12323 38.75H36.8732C37.3705 38.75 37.8474 38.5525 38.1991 38.2008C38.5507 37.8492 38.7482 37.3723 38.7482 36.875C38.7482 36.3777 38.5507 35.9008 38.1991 35.5492C37.8474 35.1975 37.3705 35 36.8732 35H36.2482V15.5687C36.646 15.7441 37.0926 15.775 37.5107 15.6562V15.6562ZM30.6232 2.5H35.6232C35.789 2.5 35.948 2.56585 36.0652 2.68306C36.1824 2.80027 36.2482 2.95924 36.2482 3.125C36.2482 3.29076 36.1824 3.44973 36.0652 3.56694C35.948 3.68415 35.789 3.75 35.6232 3.75H30.6232C30.4575 3.75 30.2985 3.68415 30.1813 3.56694C30.0641 3.44973 29.9982 3.29076 29.9982 3.125C29.9982 2.95924 30.0641 2.80027 30.1813 2.68306C30.2985 2.56585 30.4575 2.5 30.6232 2.5V2.5ZM34.9982 5V10.1437L31.242 7.89375V5H34.9982ZM36.8732 36.25C37.039 36.25 37.198 36.3158 37.3152 36.4331C37.4324 36.5503 37.4982 36.7092 37.4982 36.875C37.4982 37.0408 37.4324 37.1997 37.3152 37.3169C37.198 37.4342 37.039 37.5 36.8732 37.5H3.12323C2.95747 37.5 2.7985 37.4342 2.68129 37.3169C2.56408 37.1997 2.49823 37.0408 2.49823 36.875C2.49823 36.7092 2.56408 36.5503 2.68129 36.4331C2.7985 36.3158 2.95747 36.25 3.12323 36.25H36.8732ZM20.6232 26.25V22.5H31.2482C31.414 22.5 31.573 22.5658 31.6902 22.6831C31.8074 22.8003 31.8732 22.9592 31.8732 23.125V26.25H20.6232ZM30.6232 27.5V35H29.3732V27.5H30.6232ZM8.12323 26.25V23.125C8.12323 22.9592 8.18908 22.8003 8.30629 22.6831C8.4235 22.5658 8.58247 22.5 8.74823 22.5H19.3732V26.25H8.12323ZM10.6232 27.5V35H9.37323V27.5H10.6232ZM11.2482 21.25V15H12.4982V21.25H11.2482ZM13.7482 21.25V16.25H14.9982V21.25H13.7482ZM16.2482 21.25V17.5H17.4982V21.25H16.2482ZM11.8732 27.5H28.1232V35H11.8732V27.5ZM26.2482 20V21.25H22.4982V20H26.2482ZM23.7482 18.75V17.5H27.4982V18.75H23.7482ZM31.8732 27.5H32.4982C32.664 27.5 32.823 27.4342 32.9402 27.3169C33.0574 27.1997 33.1232 27.0408 33.1232 26.875V23.125C33.1217 22.6282 32.9237 22.1521 32.5724 21.8008C32.2211 21.4495 31.7451 21.2515 31.2482 21.25H27.4982V20H28.1232C28.289 20 28.448 19.9342 28.5652 19.8169C28.6824 19.6997 28.7482 19.5408 28.7482 19.375V16.875C28.7482 16.7092 28.6824 16.5503 28.5652 16.4331C28.448 16.3158 28.289 16.25 28.1232 16.25H23.1232C22.9575 16.25 22.7985 16.3158 22.6813 16.4331C22.5641 16.5503 22.4982 16.7092 22.4982 16.875V18.75H21.8732C21.7075 18.75 21.5485 18.8158 21.4313 18.9331C21.3141 19.0503 21.2482 19.2092 21.2482 19.375V21.25H18.7482V16.875C18.7482 16.7092 18.6824 16.5503 18.5652 16.4331C18.448 16.3158 18.289 16.25 18.1232 16.25H16.2482V15.625C16.2482 15.4592 16.1824 15.3003 16.0652 15.1831C15.948 15.0658 15.789 15 15.6232 15H13.7482V14.375C13.7482 14.2092 13.6824 14.0503 13.5652 13.9331C13.448 13.8158 13.289 13.75 13.1232 13.75H10.6232C10.4575 13.75 10.2985 13.8158 10.1813 13.9331C10.0641 14.0503 9.99823 14.2092 9.99823 14.375V21.25H8.74823C8.25141 21.2515 7.77535 21.4495 7.42404 21.8008C7.07273 22.1521 6.87471 22.6282 6.87323 23.125V26.875C6.87323 27.0408 6.93908 27.1997 7.05629 27.3169C7.1735 27.4342 7.33247 27.5 7.49823 27.5H8.12323V35H4.99823V14.85L19.6732 6.0125C19.7716 5.9542 19.8839 5.92344 19.9982 5.92344C20.1126 5.92344 20.2248 5.9542 20.3232 6.0125L34.9982 14.85V35H31.8732V27.5ZM20.967 4.94375C20.6751 4.76594 20.34 4.67188 19.9982 4.67188C19.6565 4.67188 19.3213 4.76594 19.0295 4.94375L3.33573 14.3938C3.26104 14.4377 3.17816 14.4659 3.09218 14.4766C3.0062 14.4874 2.91894 14.4804 2.83573 14.4562C2.7533 14.433 2.67673 14.3926 2.61102 14.3376C2.54532 14.2827 2.49197 14.2145 2.45448 14.1375L2.32323 13.8812C2.25491 13.7395 2.24136 13.5775 2.2852 13.4264C2.32904 13.2753 2.42716 13.1457 2.56073 13.0625L19.6795 2.79375C19.776 2.73654 19.8861 2.70636 19.9982 2.70636C20.1104 2.70636 20.2205 2.73654 20.317 2.79375L37.4357 13.0625C37.5693 13.1457 37.6674 13.2753 37.7113 13.4264C37.7551 13.5775 37.7416 13.7395 37.6732 13.8812L37.542 14.1375C37.5045 14.2145 37.4511 14.2827 37.3854 14.3376C37.3197 14.3926 37.2432 14.433 37.1607 14.4562C37.0775 14.4802 36.9903 14.4871 36.9043 14.4763C36.8184 14.4656 36.7355 14.4375 36.6607 14.3938L20.967 4.94375Z" fill="#AF956A"/>
</svg>
