<svg width="40" height="40" viewBox="0 0 40 40" fill="none" xmlns="http://www.w3.org/2000/svg">
<path d="M28.961 0H11.0383C4.95176 0 0 4.952 0 11.0385V28.9613C0 35.048 4.95176 39.9998 11.0383 39.9998H28.961C35.048 39.9998 39.9998 35.0478 39.9998 28.9613V11.0385C40 4.952 35.048 0 28.961 0ZM36.451 28.9613C36.451 33.0911 33.0911 36.4508 28.9613 36.4508H11.0383C6.90867 36.451 3.54897 33.0911 3.54897 28.9613V11.0385C3.54897 6.9089 6.90867 3.54897 11.0383 3.54897H28.961C33.0909 3.54897 36.4508 6.9089 36.4508 11.0385V28.9613H36.451Z" fill="#AF956A"/>
<path d="M19.9944 9.69336C14.3111 9.69336 9.6875 14.317 9.6875 20.0003C9.6875 25.6834 14.3111 30.3067 19.9944 30.3067C25.6778 30.3067 30.3014 25.6834 30.3014 20.0003C30.3014 14.317 25.6778 9.69336 19.9944 9.69336ZM19.9944 26.7575C16.2682 26.7575 13.2365 23.7262 13.2365 20C13.2365 16.2736 16.268 13.2421 19.9944 13.2421C23.7208 13.2421 26.7524 16.2736 26.7524 20C26.7524 23.7262 23.7206 26.7575 19.9944 26.7575Z" fill="#AF956A"/>
<path d="M30.7393 6.68359C30.0555 6.68359 29.3838 6.96041 28.9009 7.44544C28.4157 7.9281 28.1367 8.60004 28.1367 9.28617C28.1367 9.97018 28.4159 10.6419 28.9009 11.1269C29.3836 11.6096 30.0555 11.8888 30.7393 11.8888C31.4254 11.8888 32.095 11.6096 32.58 11.1269C33.0651 10.6419 33.3419 9.96994 33.3419 9.28617C33.3419 8.60004 33.0651 7.9281 32.58 7.44544C32.0974 6.96041 31.4254 6.68359 30.7393 6.68359Z" fill="#AF956A"/>
</svg>
