<svg width="40" height="40" viewBox="0 0 40 40" fill="none" xmlns="http://www.w3.org/2000/svg">
<g clip-path="url(#clip0)">
<path d="M40 8.0441C37.4838 8.16007 37.5388 8.15061 37.2543 8.17441L38.7445 3.91873C38.7445 3.91873 34.093 5.62985 32.9138 5.93595C29.8169 3.15244 25.2136 3.02945 21.9226 5.05216C19.2276 6.70896 17.7811 9.55411 18.2635 12.8796C13.0185 12.1518 8.59924 9.6655 5.11017 5.47421L4.00665 4.14884L3.18207 5.66312C2.13989 7.57657 1.79382 9.76438 2.20734 11.8234C2.37701 12.6681 2.66541 13.4738 3.06488 14.2282L2.11823 13.8614L2.00592 15.4431C1.89209 17.0498 2.42706 18.9254 3.43719 20.4599C3.72162 20.892 4.08783 21.3665 4.552 21.8347L4.06281 21.7596L4.65973 23.5721C5.44434 25.9533 7.07397 27.7957 9.18884 28.8199C7.07672 29.7162 5.37048 30.2881 2.56592 31.2106L0 32.0541L2.37 33.3499C3.27362 33.844 6.46667 35.494 9.62158 35.989C16.6345 37.0889 24.5303 36.1932 29.8459 31.4059C34.3231 27.3736 35.7922 21.6378 35.4871 15.6689C35.441 14.7653 35.6885 13.9029 36.1841 13.2409C37.1768 11.9156 39.9939 8.05295 40 8.0441V8.0441ZM34.31 11.8371C33.4869 12.9361 33.0746 14.3396 33.1485 15.7885C33.4564 21.8094 31.8182 26.4785 28.2791 29.6658C24.1449 33.3893 17.4765 34.8507 9.98444 33.6755C8.62762 33.4628 7.22534 32.9864 6.06476 32.5106C8.41614 31.7016 10.2319 30.9805 13.1644 29.5926L17.258 27.655L12.7383 27.3657C10.5734 27.2271 8.77075 26.1779 7.66266 24.4745C8.25104 24.4403 8.81836 24.3451 9.38324 24.1876L13.6938 22.987L9.34723 21.9226C7.23511 21.4053 6.03119 20.1416 5.39307 19.1723C4.97406 18.5354 4.70032 17.883 4.53613 17.2815C4.97192 17.3983 5.48004 17.4817 6.29944 17.5628L10.3226 17.9608L7.13501 15.4742C4.83826 13.6828 3.91785 10.9915 4.59259 8.40421C11.7606 15.8389 20.1767 15.2801 21.0239 15.4767C20.8374 13.6654 20.8325 13.6612 20.7837 13.4887C19.6988 9.6536 22.0764 7.70627 23.1488 7.04709C25.3888 5.67044 28.9444 5.46292 31.4072 7.73099C31.9391 8.22049 32.6584 8.41306 33.3316 8.24582C33.9359 8.09567 34.4318 7.93668 34.9173 7.76364L33.9066 10.65L35.1968 10.6509C34.9533 10.9774 34.6613 11.3684 34.31 11.8371Z" fill="#AF956A"/>
</g>
<defs>
<clipPath id="clip0">
<rect width="40" height="40" fill="white"/>
</clipPath>
</defs>
</svg>
