<svg width="40" height="40" viewBox="0 0 40 40" fill="none" xmlns="http://www.w3.org/2000/svg">
<path d="M36.2987 20.2509C35.8854 18.4551 34.4164 17.1304 32.6484 16.9332C28.4625 16.4656 24.2238 16.4634 20.0057 16.4656C15.7859 16.4634 11.548 16.4656 7.36082 16.9332C5.59367 17.1308 4.1256 18.4555 3.71271 20.2509C3.12425 22.8081 3.11719 25.5995 3.11719 28.2326C3.11719 30.8657 3.11719 33.6567 3.70565 36.2139C4.11854 38.0093 5.58661 39.334 7.35465 39.5316C11.5409 39.9997 15.7788 40.0014 19.9982 39.9997C24.218 40.0019 28.455 39.9997 32.6426 39.5316C34.4098 39.334 35.8787 38.0093 36.2916 36.2139C36.8797 33.6567 36.8828 30.8657 36.8828 28.2326C36.8823 25.5991 36.8867 22.8081 36.2987 20.2509ZM12.7483 22.2329H10.3045V35.2187H8.03442V22.2329H5.63514V20.1058H12.7483V22.2329ZM18.9139 35.2192H16.8719V33.9906C16.0607 34.9205 15.2905 35.374 14.5402 35.374C13.8824 35.374 13.4298 35.1076 13.2256 34.5372C13.1144 34.1966 13.0456 33.6576 13.0456 32.8627V23.9581H15.0858V32.2491C15.0858 32.7273 15.0858 32.9756 15.1044 33.0427C15.1533 33.3594 15.3082 33.52 15.5817 33.52C15.991 33.52 16.4189 33.2046 16.8715 32.5645V23.9581H18.9135L18.9139 35.2192ZM26.6658 31.8393C26.6658 32.8808 26.5957 33.6311 26.4594 34.1084C26.1868 34.9461 25.6411 35.374 24.8294 35.374C24.1033 35.374 23.4028 34.9708 22.7204 34.1283V35.2196H20.6802V20.1058H22.7204V25.0415C23.3794 24.2303 24.0791 23.82 24.8294 23.82C25.6411 23.82 26.1872 24.2475 26.4594 25.0905C26.5966 25.5435 26.6658 26.2881 26.6658 27.3543V31.8393ZM34.3666 29.9605H30.2857V31.9566C30.2857 32.999 30.6267 33.5195 31.3281 33.5195C31.8305 33.5195 32.123 33.2465 32.2395 32.7012C32.2584 32.5905 32.2853 32.137 32.2853 31.3187H34.367V31.6165C34.367 32.2742 34.3419 32.7273 34.3233 32.9311C34.255 33.3828 34.0944 33.7926 33.8469 34.1534C33.2818 34.9713 32.4446 35.3745 31.3788 35.3745C30.3113 35.3745 29.4987 34.9902 28.909 34.2214C28.4762 33.6576 28.2539 32.77 28.2539 31.5733V27.6292C28.2539 26.4253 28.4511 25.5448 28.8847 24.9758C29.474 24.2051 30.2861 23.8214 31.3285 23.8214C32.3524 23.8214 33.1641 24.2051 33.7358 24.9758C34.1632 25.5448 34.3674 26.4253 34.3674 27.6292V29.9605H34.3666Z" fill="#AF956A"/>
<path d="M31.309 25.6572C30.627 25.6572 30.2852 26.1782 30.2852 27.2193V28.2612H32.3254V27.2193C32.3249 26.1782 31.9839 25.6572 31.309 25.6572Z" fill="#AF956A"/>
<path d="M23.7364 25.6572C23.4003 25.6572 23.0597 25.816 22.7188 26.1535V33.017C23.0593 33.3584 23.4003 33.5199 23.7364 33.5199C24.3249 33.5199 24.624 33.017 24.624 32.0002V27.1937C24.624 26.1782 24.3249 25.6572 23.7364 25.6572Z" fill="#AF956A"/>
<path d="M24.8785 15.4274C25.6306 15.4274 26.4132 14.9704 27.2341 14.0299V15.2712H29.2964V3.89062H27.2341V12.5888C26.7771 13.2346 26.3439 13.5539 25.9315 13.5539C25.6553 13.5539 25.493 13.3907 25.448 13.0709C25.4228 13.0034 25.4228 12.7524 25.4228 12.2694V3.89062H23.3672V12.8896C23.3672 13.6933 23.436 14.2372 23.5498 14.5818C23.7571 15.1583 24.2146 15.4274 24.8785 15.4274Z" fill="#AF956A"/>
<path d="M10.5209 9.08632V15.2713H12.8077V9.08632L15.5586 0H13.2462L11.6859 5.99711L10.0626 0H7.65625C8.1384 1.41557 8.63996 2.83821 9.12211 4.2551C9.85571 6.38486 10.3136 7.99056 10.5209 9.08632Z" fill="#AF956A"/>
<path d="M18.6245 15.4278C19.6577 15.4278 20.4605 15.0392 21.03 14.2628C21.4627 13.6933 21.6701 12.7961 21.6701 11.5865V7.60136C21.6701 6.38474 21.4632 5.49543 21.03 4.92064C20.4605 4.14205 19.6581 3.75342 18.6245 3.75342C17.5967 3.75342 16.7943 4.14205 16.2235 4.92064C15.7855 5.49543 15.5781 6.38474 15.5781 7.60136V11.5865C15.5781 12.7961 15.7855 13.6933 16.2235 14.2628C16.7939 15.0392 17.5967 15.4278 18.6245 15.4278ZM17.6404 7.18803C17.6404 6.13506 17.9598 5.61012 18.6245 5.61012C19.2893 5.61012 19.6078 6.13462 19.6078 7.18803V11.9751C19.6078 13.0281 19.2893 13.5548 18.6245 13.5548C17.9598 13.5548 17.6404 13.0281 17.6404 11.9751V7.18803Z" fill="#AF956A"/>
</svg>
